#N canvas 245 94 1467 1034 12;
#X msg 131 192 \; pd dsp \$1;
#X obj 131 157 tgl 19 0 empty empty empty 0 -10 0 12 #fcfcfc #000000 #000000 0 1;
#X msg 367 126 listen 9001;
#X msg 389 155 listen 0;
#X obj 369 190 netreceive -u -b;
#X obj 369 225 oscparse;
#X listbox 369 260 29 0 0 0 - - - 0;
#X obj 369 294 list trim;
#X floatatom 369 364 5 0 0 0 - - - 0;
#X obj 369 329 route page;
#X text 367 74 OSC Listening;
#X text 843 101 Handling page turns;
#X text 124 123 Audio out on/off;
#X obj 848 129 r turn-to-page;
#X obj 368 402 s turn-to-page;
#X obj 550 856 env~;
#X obj 744 272 bng 19 250 50 0 empty empty empty 0 -10 0 12 #fcfcfc #000000 #000000;
#X obj 550 918 vu 19 160 empty empty -1 -10 0 12 #404040 #000000 1 0;
#X obj 769 216 delay 1 1 msec;
#X obj 552 885 - 100;
#X obj 363 540 route sf ctrl;
#X msg 393 654 1 1000;
#X obj 392 708 line~;
#X obj 449 773 *~;
#X obj 445 610 bng 19 250 50 0 empty empty empty 0 -10 0 12 #fcfcfc #000000 #000000;
#X obj 491 609 bng 19 250 50 0 empty empty empty 0 -10 0 12 #fcfcfc #000000 #000000;
#X msg 572 656 ctrl fade-out;
#X obj 571 690 s player-1;
#X obj 571 627 bng 19 250 50 0 empty empty empty 0 -10 0 12 #fcfcfc #000000 #000000;
#X obj 790 279 symbol;
#X obj 885 196 tgl 19 0 empty empty empty 0 -10 0 12 #fcfcfc #000000 #000000 0 1;
#X obj 886 169 bng 19 250 50 0 empty empty empty 0 -10 0 12 #fcfcfc #000000 #000000;
#X text 977 199 Player to use;
#X msg 915 230 symbol player-\$1;
#X obj 893 406 route player-0 player-1;
#X msg 980 271 \$1 ctrl prepare;
#X obj 422 580 route fade-in fade-out prepare;
#X obj 893 430 s player-0;
#X obj 972 431 s player-1;
#X obj 363 505 r player-0;
#X obj 550 823 +~;
#X msg 768 355 \$1 ctrl fade-in;
#X obj 895 274 pack f s;
#X text 504 492 Audio Players;
#X text 495 515 (Two \, for fading...);
#X obj 331 580 soundfiler;
#X obj 466 727 tabplay~ samples-player-0;
#X obj 498 854 dac~;
#X obj 121 501 table samples-player-0;
#X obj 120 526 table samples-player-1;
#X msg 887 309 \$2 sf read -resize ./music/\$1.wav samples-\$2;
#X obj 655 702 bng 19 250 50 0 empty empty empty 0 -10 0 12 #fcfcfc #000000 #000000;
#X obj 710 538 route sf ctrl;
#X msg 740 652 1 1000;
#X obj 739 706 line~;
#X obj 744 763 *~;
#X obj 792 608 bng 19 250 50 0 empty empty empty 0 -10 0 12 #fcfcfc #000000 #000000;
#X obj 838 607 bng 19 250 50 0 empty empty empty 0 -10 0 12 #fcfcfc #000000 #000000;
#X msg 919 654 ctrl fade-out;
#X obj 918 625 bng 19 250 50 0 empty empty empty 0 -10 0 12 #fcfcfc #000000 #000000;
#X obj 769 578 route fade-in fade-out prepare;
#X obj 678 578 soundfiler;
#X obj 1002 700 bng 19 250 50 0 empty empty empty 0 -10 0 12 #fcfcfc #000000 #000000;
#X obj 813 725 tabplay~ samples-player-1;
#X obj 918 688 s player-0;
#X obj 710 503 r player-1;
#X text 103 471 Tables to preload audio files;
#X obj 916 158 print page;
#X msg 492 637 0 2000;
#X msg 839 635 0 2000;
#X msg 769 178 2000;
#X obj 367 101 loadbang;
#X text 1090 473 Handling page-turn SFX;
#X obj 1091 507 r turn-to-page;
#X obj 1089 630 readsf~;
#X msg 1091 556 open ./sfx/\$1.wav;
#X obj 1090 725 dac~;
#X obj 1139 703 env~;
#X obj 1139 727 - 100;
#X obj 1139 751 vu 19 200 empty empty -1 -10 0 12 #404040 #000000 1 0;
#X obj 1061 551 bng 19 250 50 0 empty empty empty 0 -10 0 12 #fcfcfc #000000 #000000;
#X obj 1240 578 delay 1 1 msec;
#X msg 1163 602 start;
#X msg 1240 554 2500;
#X obj 1089 664 *~ 0.5;
#X obj 322 122 vradio 19 1 0 16 empty empty empty 0 -10 0 12 #fcfcfc #000000 #000000 0;
#X text 273 121 Lobby;
#X text 292 141 1;
#X text 292 160 2;
#X text 292 179 3;
#X text 292 198 4;
#X text 292 217 5;
#X text 291 257 7;
#X text 291 278 8;
#X text 298 294 9;
#X text 291 238 6;
#X text 291 311 10;
#X text 292 331 11;
#X text 291 350 12;
#X text 291 369 13;
#X text 291 388 14;
#X text 292 408 15;
#X connect 1 0 0 0;
#X connect 2 0 4 0;
#X connect 3 0 4 0;
#X connect 4 0 5 0;
#X connect 5 0 6 0;
#X connect 6 0 7 0;
#X connect 7 0 9 0;
#X connect 8 0 85 0;
#X connect 9 0 8 0;
#X connect 13 0 31 0;
#X connect 13 0 70 0;
#X connect 13 0 42 0;
#X connect 13 0 67 0;
#X connect 15 0 19 0;
#X connect 18 0 16 0;
#X connect 18 0 29 0;
#X connect 19 0 17 0;
#X connect 20 0 45 0;
#X connect 20 1 36 0;
#X connect 21 0 22 0;
#X connect 22 0 23 0;
#X connect 23 0 40 0;
#X connect 24 0 21 0;
#X connect 24 0 46 0;
#X connect 25 0 68 0;
#X connect 26 0 27 0;
#X connect 28 0 26 0;
#X connect 29 0 41 0;
#X connect 30 0 33 0;
#X connect 31 0 30 0;
#X connect 33 0 35 0;
#X connect 33 0 29 1;
#X connect 33 0 42 1;
#X connect 34 0 37 0;
#X connect 34 1 38 0;
#X connect 35 0 34 0;
#X connect 36 0 24 0;
#X connect 36 1 25 0;
#X connect 36 2 28 0;
#X connect 39 0 20 0;
#X connect 40 0 15 0;
#X connect 40 0 47 0;
#X connect 40 0 47 1;
#X connect 41 0 34 0;
#X connect 42 0 50 0;
#X connect 46 0 23 1;
#X connect 46 1 51 0;
#X connect 50 0 34 0;
#X connect 51 0 46 0;
#X connect 52 0 61 0;
#X connect 52 1 60 0;
#X connect 53 0 54 0;
#X connect 54 0 55 0;
#X connect 55 0 40 1;
#X connect 56 0 53 0;
#X connect 56 0 63 0;
#X connect 57 0 69 0;
#X connect 58 0 64 0;
#X connect 59 0 58 0;
#X connect 60 0 56 0;
#X connect 60 1 57 0;
#X connect 60 2 59 0;
#X connect 62 0 63 0;
#X connect 63 0 55 1;
#X connect 63 1 62 0;
#X connect 65 0 52 0;
#X connect 68 0 22 0;
#X connect 69 0 54 0;
#X connect 70 0 18 0;
#X connect 71 0 2 0;
#X connect 73 0 75 0;
#X connect 73 0 80 0;
#X connect 73 0 83 0;
#X connect 74 0 84 0;
#X connect 75 0 74 0;
#X connect 77 0 78 0;
#X connect 78 0 79 0;
#X connect 81 0 82 0;
#X connect 82 0 74 0;
#X connect 83 0 81 0;
#X connect 84 0 76 0;
#X connect 84 0 76 1;
#X connect 84 0 77 0;
#X connect 85 0 14 0;
#X coords 0 0 1 1 85 60 0;
